<svg xmlns="http://www.w3.org/2000/svg" viewBox="0 0 1770 1594" width="1770" height="1594"><defs><style type="text/css">@import url('https://fonts.googleapis.com/css?family=Roboto+Mono:400|Roboto:400,&amp;subset=cyrillic,cyrillic-ext,greek,greek-ext,latin-ext')</style></defs><rect x="0" y="0" width="1770" height="1594" fill="#ffffff"/><g transform="translate(45,45)"><g><g><g transform="translate(20, 20)"><rect width="1640" height="1464" fill="#D8F1FF" stroke="#A2CEF9" stroke-width="2" stroke-dasharray="0px 0px"/></g></g><g><g transform="translate(840, 224)"><path d="M96.5 68.5 L166 27 A3.9655172413793105 3.9655172413793105 0 0 1 170 27 L239.5 68.5 L309 110 A2.412587412587413 2.412587412587413 0 0 1 309 114 L239.5 155.5 L170 197 A3.9655172413793105 3.9655172413793105 0 0 1 166 197 L96.5 155.5 L27 114 A2.412587412587413 2.412587412587413 0 0 1 27 110 Z" fill="#4D9EF6" stroke="#4d9ef6" stroke-width="2"/><g transform="translate(92.5, 72)"><text font-size="14" font-family="Roboto,sans-serif" x="75.5" y="25" text-anchor="middle" fill="#FFFFFF">Searching for the product</text><text font-size="14" font-family="Roboto,sans-serif" x="75.5" y="45" text-anchor="middle" fill="#FFFFFF">/ Surfing through the given</text><text font-size="14" font-family="Roboto,sans-serif" x="75.5" y="65" text-anchor="middle" fill="#FFFFFF">list</text></g></g><g transform="translate(840, 64)"><path d="M31.5 28 L168 28 L304.5 28 C306.5 28 308 29.5 308 31.5 L308 80 L308 128.5 C308 130.5 306.5 132 304.5 132 L168 132 L31.5 132 C29.5 132 28 130.5 28 128.5 L28 80 L28 31.5 C28 29.5 29.5 28 31.5 28 Z" fill="#4D9EF6" stroke="#4d9ef6" stroke-width="2"/><g transform="translate(36, 40)"><text font-size="14" font-family="Roboto,sans-serif" x="132" y="45" text-anchor="middle" fill="#FFFFFF">Trademe Market Homepage</text></g></g><g transform="translate(1176, 448)"><path d="M64 28 L168 28 L272 28 C294 28 308 42 308 64 L308 80 L308 96 C308 118 294 132 272 132 L168 132 L64 132 C42 132 28 118 28 96 L28 80 L28 64 C28 42 42 28 64 28 Z" fill="#4D9EF6" stroke="#4d9ef6" stroke-width="2"/><g transform="translate(36, 40)"><text font-size="14" font-family="Roboto,sans-serif" x="132" y="45" text-anchor="middle" fill="#FFFFFF">Adding the products to the watchlist</text></g></g><g transform="translate(224, 896)"><path d="M31.5 28 L140 28 L248.5 28 C250.5 28 252 29.5 252 31.5 L252 96 L252 160.5 C252 162.5 250.5 164 248.5 164 L140 164 L31.5 164 C29.5 164 28 162.5 28 160.5 L28 96 L28 31.5 C28 29.5 29.5 28 31.5 28 Z" fill="#4D9EF6" stroke="#4d9ef6" stroke-width="2"/><g transform="translate(36, 36)"><text font-size="14" font-family="Roboto,sans-serif" x="104" y="65" text-anchor="middle" fill="#FFFFFF">Shipping and Payment Page</text></g></g><g transform="translate(784, 896)"><path d="M31.5 28 L140 28 L248.5 28 C250.5 28 252 29.5 252 31.5 L252 96 L252 160.5 C252 162.5 250.5 164 248.5 164 L140 164 L31.5 164 C29.5 164 28 162.5 28 160.5 L28 96 L28 31.5 C28 29.5 29.5 28 31.5 28 Z" fill="#4D9EF6" stroke="#4d9ef6" stroke-width="2"/><g transform="translate(36, 36)"><text font-size="14" font-family="Roboto,sans-serif" x="104" y="65" text-anchor="middle" fill="#FFFFFF">Notification of the Bid</text></g></g><g transform="translate(504, 448)"><path d="M64 28 L140 28 L216 28 C238 28 252 42 252 64 L252 80 L252 96 C252 118 238 132 216 132 L140 132 L64 132 C42 132 28 118 28 96 L28 80 L28 64 C28 42 42 28 64 28 Z" fill="#4D9EF6" stroke="#4d9ef6" stroke-width="2"/><g transform="translate(36, 40)"><text font-size="14" font-family="Roboto,sans-serif" x="104" y="45" text-anchor="middle" fill="#FFFFFF">Selecting the product</text></g></g><g transform="translate(504, 640)"><path d="M31.5 28 L140 28 L248.5 28 C250.5 28 252 29.5 252 31.5 L252 80 L252 128.5 C252 130.5 250.5 132 248.5 132 L140 132 L31.5 132 C29.5 132 28 130.5 28 128.5 L28 80 L28 31.5 C28 29.5 29.5 28 31.5 28 Z" fill="#4D9EF6" stroke="#4d9ef6" stroke-width="2"/><g transform="translate(36, 40)"><text font-size="14" font-family="Roboto,sans-serif" x="104" y="45" text-anchor="middle" fill="#FFFFFF">Products main page</text></g></g><g transform="translate(784, 1248)"><path d="M31.5 28 L140 28 L248.5 28 C250.5 28 252 29.5 252 31.5 L252 80 L252 128.5 C252 130.5 250.5 132 248.5 132 L140 132 L31.5 132 C29.5 132 28 130.5 28 128.5 L28 80 L28 31.5 C28 29.5 29.5 28 31.5 28 Z" fill="#4D9EF6" stroke="#4d9ef6" stroke-width="2"/><g transform="translate(36, 40)"><text font-size="14" font-family="Roboto,sans-serif" x="104" y="45" text-anchor="middle" fill="#FFFFFF">Bid won</text></g></g><g transform="translate(224, 768)"><path d="M64 28 L140 28 L216 28 C238 28 252 42 252 64 L252 64 L252 64 C252 86 238 100 216 100 L140 100 L64 100 C42 100 28 86 28 64 L28 64 L28 64 C28 42 42 28 64 28 Z" fill="#4D9EF6" stroke="#4d9ef6" stroke-width="2"/><g transform="translate(36, 34)"><text font-size="14" font-family="Roboto,sans-serif" x="104" y="35" text-anchor="middle" fill="#FFFFFF">Buy the product</text></g></g><g transform="translate(784, 768)"><path d="M64 28 L140 28 L216 28 C238 28 252 42 252 64 L252 64 L252 64 C252 86 238 100 216 100 L140 100 L64 100 C42 100 28 86 28 64 L28 64 L28 64 C28 42 42 28 64 28 Z" fill="#4D9EF6" stroke="#4d9ef6" stroke-width="2"/><g transform="translate(36, 34)"><text font-size="14" font-family="Roboto,sans-serif" x="104" y="35" text-anchor="middle" fill="#FFFFFF">Bid for the product</text></g></g><g transform="translate(224, 1152)"><path d="M64 28 L140 28 L216 28 C238 28 252 42 252 64 L252 64 L252 64 C252 86 238 100 216 100 L140 100 L64 100 C42 100 28 86 28 64 L28 64 L28 64 C28 42 42 28 64 28 Z" fill="#4D9EF6" stroke="#4d9ef6" stroke-width="2"/><g transform="translate(36, 34)"><text font-size="14" font-family="Roboto,sans-serif" x="104" y="25" text-anchor="middle" fill="#FFFFFF">Confirming Shipping and payment</text><text font-size="14" font-family="Roboto,sans-serif" x="104" y="45" text-anchor="middle" fill="#FFFFFF">options</text></g></g><g transform="translate(224, 1280)"><path d="M64 28 L140 28 L216 28 C238 28 252 42 252 64 L252 64 L252 64 C252 86 238 100 216 100 L140 100 L64 100 C42 100 28 86 28 64 L28 64 L28 64 C28 42 42 28 64 28 Z" fill="#4D9EF6" stroke="#4d9ef6" stroke-width="2"/><g transform="translate(36, 34)"><text font-size="14" font-family="Roboto,sans-serif" x="104" y="35" text-anchor="middle" fill="#FFFFFF">Receive / Pickup Product</text></g></g><g transform="translate(784, 1120)"><path d="M64 28 L140 28 L216 28 C238 28 252 42 252 64 L252 64 L252 64 C252 86 238 100 216 100 L140 100 L64 100 C42 100 28 86 28 64 L28 64 L28 64 C28 42 42 28 64 28 Z" fill="#4D9EF6" stroke="#4d9ef6" stroke-width="2"/><g transform="translate(36, 34)"><text font-size="14" font-family="Roboto,sans-serif" x="104" y="35" text-anchor="middle" fill="#FFFFFF">Continue bidding</text></g></g><g transform="translate(1064, 1120)"><path d="M64 28 L140 28 L216 28 C238 28 252 42 252 64 L252 64 L252 64 C252 86 238 100 216 100 L140 100 L64 100 C42 100 28 86 28 64 L28 64 L28 64 C28 42 42 28 64 28 Z" fill="#4D9EF6" stroke="#4d9ef6" stroke-width="2"/><g transform="translate(36, 34)"><text font-size="14" font-family="Roboto,sans-serif" x="104" y="35" text-anchor="middle" fill="#FFFFFF">Stops bidding</text></g></g></g><g><g><path fill="none" stroke="#4d9ef6" stroke-width="2" stroke-dasharray="0px 0px" d="M 1008,197L 1008,224L 1008,224L 1008,247.5"/><path transform="translate( 1011, 199 ) rotate( 180 )" d="M3 6C4.65685 6 6 4.65685 6 3C6 1.34315 4.65685 0 3 0C1.34315 0 0 1.34315 0 3C0 4.65685 1.34315 6 3 6Z" fill="#4d9ef6"/><path transform="translate( 1015, 249.5 ) rotate( 540 )" d="M6.34003 0.275664C6.70452 -0.0918881 7.29548 -0.0918881 7.65997 0.275664L13.7266 6.39331C14.0911 6.76086 14.0911 7.35678 13.7266 7.72434C13.3621 8.09189 12.7712 8.09189 12.4067 7.72434L7 2.2722L1.5933 7.72434C1.22881 8.09189 0.637856 8.09189 0.273367 7.72434C-0.0911224 7.35678 -0.0911224 6.76086 0.273367 6.39331L6.34003 0.275664Z" fill="#4d9ef6"/></g><g><path fill="none" stroke="#4d9ef6" stroke-width="2" stroke-dasharray="0px 0px" d="M 865,336L 840,336L 654,336Q644,336 644,346L 644,448L 644,473"/><path transform="translate( 863, 339 ) rotate( 270 )" d="M3 6C4.65685 6 6 4.65685 6 3C6 1.34315 4.65685 0 3 0C1.34315 0 0 1.34315 0 3C0 4.65685 1.34315 6 3 6Z" fill="#4d9ef6"/><path transform="translate( 651, 475 ) rotate( 540 )" d="M6.34003 0.275664C6.70452 -0.0918881 7.29548 -0.0918881 7.65997 0.275664L13.7266 6.39331C14.0911 6.76086 14.0911 7.35678 13.7266 7.72434C13.3621 8.09189 12.7712 8.09189 12.4067 7.72434L7 2.2722L1.5933 7.72434C1.22881 8.09189 0.637856 8.09189 0.273367 7.72434C-0.0911224 7.35678 -0.0911224 6.76086 0.273367 6.39331L6.34003 0.275664Z" fill="#4d9ef6"/></g><g><path fill="none" stroke="#4d9ef6" stroke-width="2" stroke-dasharray="0px 0px" d="M 1151,336L 1176,336L 1334,336Q1344,336 1344,346L 1344,448L 1344,473"/><path transform="translate( 1153, 333 ) rotate( 450 )" d="M3 6C4.65685 6 6 4.65685 6 3C6 1.34315 4.65685 0 3 0C1.34315 0 0 1.34315 0 3C0 4.65685 1.34315 6 3 6Z" fill="#4d9ef6"/><path transform="translate( 1351, 475 ) rotate( 540 )" d="M6.34003 0.275664C6.70452 -0.0918881 7.29548 -0.0918881 7.65997 0.275664L13.7266 6.39331C14.0911 6.76086 14.0911 7.35678 13.7266 7.72434C13.3621 8.09189 12.7712 8.09189 12.4067 7.72434L7 2.2722L1.5933 7.72434C1.22881 8.09189 0.637856 8.09189 0.273367 7.72434C-0.0911224 7.35678 -0.0911224 6.76086 0.273367 6.39331L6.34003 0.275664Z" fill="#4d9ef6"/></g><g><path fill="none" stroke="#4d9ef6" stroke-width="2" stroke-dasharray="0px 0px" d="M 644,581L 644,608L 644,640L 644,665"/><path transform="translate( 647, 583 ) rotate( 180 )" d="M3 6C4.65685 6 6 4.65685 6 3C6 1.34315 4.65685 0 3 0C1.34315 0 0 1.34315 0 3C0 4.65685 1.34315 6 3 6Z" fill="#4d9ef6"/><path transform="translate( 651, 667 ) rotate( 540 )" d="M6.34003 0.275664C6.70452 -0.0918881 7.29548 -0.0918881 7.65997 0.275664L13.7266 6.39331C14.0911 6.76086 14.0911 7.35678 13.7266 7.72434C13.3621 8.09189 12.7712 8.09189 12.4067 7.72434L7 2.2722L1.5933 7.72434C1.22881 8.09189 0.637856 8.09189 0.273367 7.72434C-0.0911224 7.35678 -0.0911224 6.76086 0.273367 6.39331L6.34003 0.275664Z" fill="#4d9ef6"/></g><g><path fill="none" stroke="#4d9ef6" stroke-width="2" stroke-dasharray="0px 0px" d="M 1203,528L 1176,528L 784,528L 759,528"/><path transform="translate( 1201, 531 ) rotate( 270 )" d="M3 6C4.65685 6 6 4.65685 6 3C6 1.34315 4.65685 0 3 0C1.34315 0 0 1.34315 0 3C0 4.65685 1.34315 6 3 6Z" fill="#4d9ef6"/><path transform="translate( 757, 535 ) rotate( 630 )" d="M6.34003 0.275664C6.70452 -0.0918881 7.29548 -0.0918881 7.65997 0.275664L13.7266 6.39331C14.0911 6.76086 14.0911 7.35678 13.7266 7.72434C13.3621 8.09189 12.7712 8.09189 12.4067 7.72434L7 2.2722L1.5933 7.72434C1.22881 8.09189 0.637856 8.09189 0.273367 7.72434C-0.0911224 7.35678 -0.0911224 6.76086 0.273367 6.39331L6.34003 0.275664Z" fill="#4d9ef6"/></g><g><path fill="none" stroke="#4d9ef6" stroke-width="2" stroke-dasharray="0px 0px" d="M 757,720L 784,720L 914,720Q924,720 924,730L 924,768L 924,793"/><path transform="translate( 759, 717 ) rotate( 450 )" d="M3 6C4.65685 6 6 4.65685 6 3C6 1.34315 4.65685 0 3 0C1.34315 0 0 1.34315 0 3C0 4.65685 1.34315 6 3 6Z" fill="#4d9ef6"/><path transform="translate( 931, 795 ) rotate( 540 )" d="M6.34003 0.275664C6.70452 -0.0918881 7.29548 -0.0918881 7.65997 0.275664L13.7266 6.39331C14.0911 6.76086 14.0911 7.35678 13.7266 7.72434C13.3621 8.09189 12.7712 8.09189 12.4067 7.72434L7 2.2722L1.5933 7.72434C1.22881 8.09189 0.637856 8.09189 0.273367 7.72434C-0.0911224 7.35678 -0.0911224 6.76086 0.273367 6.39331L6.34003 0.275664Z" fill="#4d9ef6"/></g><g><path fill="none" stroke="#4d9ef6" stroke-width="2" stroke-dasharray="0px 0px" d="M 531,720L 504,720L 374,720Q364,720 364,730L 364,768L 364,793"/><path transform="translate( 529, 723 ) rotate( 270 )" d="M3 6C4.65685 6 6 4.65685 6 3C6 1.34315 4.65685 0 3 0C1.34315 0 0 1.34315 0 3C0 4.65685 1.34315 6 3 6Z" fill="#4d9ef6"/><path transform="translate( 371, 795 ) rotate( 540 )" d="M6.34003 0.275664C6.70452 -0.0918881 7.29548 -0.0918881 7.65997 0.275664L13.7266 6.39331C14.0911 6.76086 14.0911 7.35678 13.7266 7.72434C13.3621 8.09189 12.7712 8.09189 12.4067 7.72434L7 2.2722L1.5933 7.72434C1.22881 8.09189 0.637856 8.09189 0.273367 7.72434C-0.0911224 7.35678 -0.0911224 6.76086 0.273367 6.39331L6.34003 0.275664Z" fill="#4d9ef6"/></g><g><path fill="none" stroke="#4d9ef6" stroke-width="2" stroke-dasharray="0px 0px" d="M 364,869L 364,896L 364,896L 364,921"/><path transform="translate( 367, 871 ) rotate( 180 )" d="M3 6C4.65685 6 6 4.65685 6 3C6 1.34315 4.65685 0 3 0C1.34315 0 0 1.34315 0 3C0 4.65685 1.34315 6 3 6Z" fill="#4d9ef6"/><path transform="translate( 371, 923 ) rotate( 540 )" d="M6.34003 0.275664C6.70452 -0.0918881 7.29548 -0.0918881 7.65997 0.275664L13.7266 6.39331C14.0911 6.76086 14.0911 7.35678 13.7266 7.72434C13.3621 8.09189 12.7712 8.09189 12.4067 7.72434L7 2.2722L1.5933 7.72434C1.22881 8.09189 0.637856 8.09189 0.273367 7.72434C-0.0911224 7.35678 -0.0911224 6.76086 0.273367 6.39331L6.34003 0.275664Z" fill="#4d9ef6"/></g><g><path fill="none" stroke="#4d9ef6" stroke-width="2" stroke-dasharray="0px 0px" d="M 924,869L 924,896L 924,896L 924,921"/><path transform="translate( 927, 871 ) rotate( 180 )" d="M3 6C4.65685 6 6 4.65685 6 3C6 1.34315 4.65685 0 3 0C1.34315 0 0 1.34315 0 3C0 4.65685 1.34315 6 3 6Z" fill="#4d9ef6"/><path transform="translate( 931, 923 ) rotate( 540 )" d="M6.34003 0.275664C6.70452 -0.0918881 7.29548 -0.0918881 7.65997 0.275664L13.7266 6.39331C14.0911 6.76086 14.0911 7.35678 13.7266 7.72434C13.3621 8.09189 12.7712 8.09189 12.4067 7.72434L7 2.2722L1.5933 7.72434C1.22881 8.09189 0.637856 8.09189 0.273367 7.72434C-0.0911224 7.35678 -0.0911224 6.76086 0.273367 6.39331L6.34003 0.275664Z" fill="#4d9ef6"/></g><g><path fill="none" stroke="#4d9ef6" stroke-width="2" stroke-dasharray="0px 0px" d="M 364,1253L 364,1280L 364,1280L 364,1305"/><path transform="translate( 367, 1255 ) rotate( 180 )" d="M3 6C4.65685 6 6 4.65685 6 3C6 1.34315 4.65685 0 3 0C1.34315 0 0 1.34315 0 3C0 4.65685 1.34315 6 3 6Z" fill="#4d9ef6"/><path transform="translate( 371, 1307 ) rotate( 540 )" d="M6.34003 0.275664C6.70452 -0.0918881 7.29548 -0.0918881 7.65997 0.275664L13.7266 6.39331C14.0911 6.76086 14.0911 7.35678 13.7266 7.72434C13.3621 8.09189 12.7712 8.09189 12.4067 7.72434L7 2.2722L1.5933 7.72434C1.22881 8.09189 0.637856 8.09189 0.273367 7.72434C-0.0911224 7.35678 -0.0911224 6.76086 0.273367 6.39331L6.34003 0.275664Z" fill="#4d9ef6"/></g><g><path fill="none" stroke="#4d9ef6" stroke-width="2" stroke-dasharray="0px 0px" d="M 364,1061L 364,1088L 364,1152L 364,1177"/><path transform="translate( 367, 1063 ) rotate( 180 )" d="M3 6C4.65685 6 6 4.65685 6 3C6 1.34315 4.65685 0 3 0C1.34315 0 0 1.34315 0 3C0 4.65685 1.34315 6 3 6Z" fill="#4d9ef6"/><path transform="translate( 371, 1179 ) rotate( 540 )" d="M6.34003 0.275664C6.70452 -0.0918881 7.29548 -0.0918881 7.65997 0.275664L13.7266 6.39331C14.0911 6.76086 14.0911 7.35678 13.7266 7.72434C13.3621 8.09189 12.7712 8.09189 12.4067 7.72434L7 2.2722L1.5933 7.72434C1.22881 8.09189 0.637856 8.09189 0.273367 7.72434C-0.0911224 7.35678 -0.0911224 6.76086 0.273367 6.39331L6.34003 0.275664Z" fill="#4d9ef6"/></g><g><path fill="none" stroke="#4d9ef6" stroke-width="2" stroke-dasharray="0px 0px" d="M 924,1061L 924,1088L 924,1120L 924,1145"/><path transform="translate( 927, 1063 ) rotate( 180 )" d="M3 6C4.65685 6 6 4.65685 6 3C6 1.34315 4.65685 0 3 0C1.34315 0 0 1.34315 0 3C0 4.65685 1.34315 6 3 6Z" fill="#4d9ef6"/><path transform="translate( 931, 1147 ) rotate( 540 )" d="M6.34003 0.275664C6.70452 -0.0918881 7.29548 -0.0918881 7.65997 0.275664L13.7266 6.39331C14.0911 6.76086 14.0911 7.35678 13.7266 7.72434C13.3621 8.09189 12.7712 8.09189 12.4067 7.72434L7 2.2722L1.5933 7.72434C1.22881 8.09189 0.637856 8.09189 0.273367 7.72434C-0.0911224 7.35678 -0.0911224 6.76086 0.273367 6.39331L6.34003 0.275664Z" fill="#4d9ef6"/></g><g><path fill="none" stroke="#4d9ef6" stroke-width="2" stroke-dasharray="0px 0px" d="M 1037,992L 1054,992Q1064,992 1064,1002L 1064,1174Q1064,1184 1074,1184L 1089,1184"/><path transform="translate( 1039, 989 ) rotate( 450 )" d="M3 6C4.65685 6 6 4.65685 6 3C6 1.34315 4.65685 0 3 0C1.34315 0 0 1.34315 0 3C0 4.65685 1.34315 6 3 6Z" fill="#4d9ef6"/><path transform="translate( 1091, 1177 ) rotate( 450 )" d="M6.34003 0.275664C6.70452 -0.0918881 7.29548 -0.0918881 7.65997 0.275664L13.7266 6.39331C14.0911 6.76086 14.0911 7.35678 13.7266 7.72434C13.3621 8.09189 12.7712 8.09189 12.4067 7.72434L7 2.2722L1.5933 7.72434C1.22881 8.09189 0.637856 8.09189 0.273367 7.72434C-0.0911224 7.35678 -0.0911224 6.76086 0.273367 6.39331L6.34003 0.275664Z" fill="#4d9ef6"/></g><g><path fill="none" stroke="#4d9ef6" stroke-width="2" stroke-dasharray="0px 0px" d="M 924,1221L 924,1248L 924,1248L 924,1273"/><path transform="translate( 927, 1223 ) rotate( 180 )" d="M3 6C4.65685 6 6 4.65685 6 3C6 1.34315 4.65685 0 3 0C1.34315 0 0 1.34315 0 3C0 4.65685 1.34315 6 3 6Z" fill="#4d9ef6"/><path transform="translate( 931, 1275 ) rotate( 540 )" d="M6.34003 0.275664C6.70452 -0.0918881 7.29548 -0.0918881 7.65997 0.275664L13.7266 6.39331C14.0911 6.76086 14.0911 7.35678 13.7266 7.72434C13.3621 8.09189 12.7712 8.09189 12.4067 7.72434L7 2.2722L1.5933 7.72434C1.22881 8.09189 0.637856 8.09189 0.273367 7.72434C-0.0911224 7.35678 -0.0911224 6.76086 0.273367 6.39331L6.34003 0.275664Z" fill="#4d9ef6"/></g><g><path fill="none" stroke="#4d9ef6" stroke-width="2" stroke-dasharray="0px 0px" d="M 811,1328L 784,1328L 514,1328Q504,1328 504,1318L 504,1226Q504,1216 494,1216L 479,1216"/><path transform="translate( 809, 1331 ) rotate( 270 )" d="M3 6C4.65685 6 6 4.65685 6 3C6 1.34315 4.65685 0 3 0C1.34315 0 0 1.34315 0 3C0 4.65685 1.34315 6 3 6Z" fill="#4d9ef6"/><path transform="translate( 477, 1223 ) rotate( 630 )" d="M6.34003 0.275664C6.70452 -0.0918881 7.29548 -0.0918881 7.65997 0.275664L13.7266 6.39331C14.0911 6.76086 14.0911 7.35678 13.7266 7.72434C13.3621 8.09189 12.7712 8.09189 12.4067 7.72434L7 2.2722L1.5933 7.72434C1.22881 8.09189 0.637856 8.09189 0.273367 7.72434C-0.0911224 7.35678 -0.0911224 6.76086 0.273367 6.39331L6.34003 0.275664Z" fill="#4d9ef6"/></g></g></g></g></svg>